# xmcd
#
# Track frame offsets: 
#        150
#        15835
#        28676
#        44463
#        59046
#        75244
#        92121
#        107660
#        125083
#        141789
#        156460
#        173386
#        187281
#        200874
#        212591
#        228421
#        242176
#        255681
#        272800
#        288807
#
# Disc length: 4067 seconds
#
# Revision: 0
# Processed by: cddbd v1.5.1PL0 Copyright (c) Steve Scherf et al.
# Submitted via: ExactAudioCopy v0.95a3
#
DISCID=220fe114
DTITLE=Various Artist - Duelo Srtanejo
DYEAR=1900
DGENRE=Sertanejo
TTITLE0=O amor está aqui/Bruno and Marrone
TTITLE1=De bem com a vida/Rio Negro and Solimões
TTITLE2=Entra na arena/Edson and Hudson
TTITLE3=Teimosia/Gian and Giovani
TTITLE4=Riacho sereno/Rick and Renner
TTITLE5=Você o amor e eu/Cleiton and Camargo
TTITLE6=Nosso amor é ouro/Zezé di Camargo and Luciano
TTITLE7=A outra (misturinha)/guilherme and Santiago
TTITLE8=Sem palavras/Marlon and Maicon
TTITLE9=Cerveja no gogó/Alan and Aladim
TTITLE10=Um degrau na escada/Chico Rey and Paraná
TTITLE11=Agua de minha sede/Di Paulo and Paulinho
TTITLE12=Mata de saudade/Felipe and falcão
TTITLE13=Comendo poeira/Adalberto and Adriano
TTITLE14=Alma sertaneja/Roberta Miranda
TTITLE15=Nóis enverga mais não quebra/Gino and Geno
TTITLE16=Paixão mal curada/Alan and Aladim
TTITLE17=Nos bares da cidade/Rick and Renner
TTITLE18=Desejo de amor/João Pedro and Cristiano
TTITLE19=Bate a bota no chão/Gino and Geno
EXTD=
EXTT0=
EXTT1=
EXTT2=
EXTT3=
EXTT4=
EXTT5=
EXTT6=
EXTT7=
EXTT8=
EXTT9=
EXTT10=
EXTT11=
EXTT12=
EXTT13=
EXTT14=
EXTT15=
EXTT16=
EXTT17=
EXTT18=
EXTT19=
PLAYORDER=
